<svg width="40" height="40" viewBox="0 0 40 40" fill="none" xmlns="http://www.w3.org/2000/svg">
<g clip-path="url(#clip0_61_472)">
<path d="M12.2764 16.9093C11.845 16.9093 11.4951 16.5595 11.4951 16.128V15.5229C11.4951 15.0915 11.845 14.7417 12.2764 14.7417C12.7078 14.7417 13.0576 15.0915 13.0576 15.5229V16.128C13.0576 16.5594 12.7078 16.9093 12.2764 16.9093Z" fill="#FFFEEC"/>
<path d="M17.7764 16.9093C17.345 16.9093 16.9951 16.5595 16.9951 16.128V15.5229C16.9951 15.0915 17.345 14.7417 17.7764 14.7417C18.2078 14.7417 18.5576 15.0915 18.5576 15.5229V16.128C18.5576 16.5594 18.2079 16.9093 17.7764 16.9093Z" fill="#FFFEEC"/>
<path d="M14.9713 21.2693C14.3169 21.2693 13.702 21.0137 13.2396 20.5497C12.935 20.2441 12.9359 19.7494 13.2415 19.4448C13.5474 19.1403 14.0419 19.1412 14.3464 19.4469C14.5135 19.6145 14.7354 19.7069 14.9713 19.7069C15.2071 19.7069 15.429 19.6145 15.596 19.4469C15.9006 19.1412 16.3953 19.1404 16.701 19.4448C17.0066 19.7494 17.0075 20.2441 16.7029 20.5497C16.2405 21.0137 15.6256 21.2693 14.9713 21.2693Z" fill="#FFFEEC"/>
<path d="M38.8135 32.2696C38.4162 32.102 37.9578 32.2884 37.7901 32.6861C36.4967 35.7549 33.5164 37.7379 30.1974 37.7379C25.6537 37.7379 21.9572 34.0268 21.9572 29.4654C21.9572 24.904 25.6537 21.1929 30.1974 21.1929C33.5341 21.1929 36.5205 23.1905 37.8057 26.2818C37.9712 26.6802 38.4286 26.8688 38.8269 26.7033C39.2254 26.5377 39.4141 26.0804 39.2484 25.682C37.7202 22.0058 34.1675 19.6304 30.1974 19.6304C29.3021 19.6304 28.4345 19.7515 27.6099 19.9782V13.3727C27.6099 6.38465 21.9437 0.699463 14.9789 0.699463C8.01427 0.699463 2.34806 6.38465 2.34806 13.3727V20.1667C0.905943 20.956 0 22.465 0 24.1451C0 26.4052 1.65681 28.2845 3.81619 28.6253C3.01392 29.4794 2.52189 30.6281 2.52189 31.8896V38.5191C2.52189 38.9506 2.87174 39.3004 3.30314 39.3004H26.6546C26.957 39.3004 27.2193 39.1285 27.3491 38.8771C28.2509 39.1523 29.2072 39.3004 30.1974 39.3004C34.1464 39.3004 37.6919 36.9423 39.2299 33.2929C39.3976 32.8953 39.211 32.4371 38.8135 32.2696ZM1.56251 24.1451C1.56251 22.923 2.29212 21.8394 3.42119 21.3846C3.7169 21.2655 3.91057 20.9787 3.91057 20.66V13.3726C3.91057 7.24606 8.87583 2.26189 14.979 2.26189C21.0822 2.26189 26.0473 7.24614 26.0473 13.3726V20.5558C23.3964 21.8038 21.3896 24.2085 20.6768 27.118H17.429V25.1493C18.9626 24.6655 20.3404 23.7259 21.3568 22.4599C22.5226 21.0079 23.1646 19.1797 23.1646 17.3119V14.5006C23.1646 14.1502 22.9313 13.8427 22.5938 13.7483C21.0667 13.321 19.3146 12.1966 17.7868 10.6633C17.3992 10.2744 17.0333 9.86631 16.6992 9.45029C15.5709 8.04529 13.8222 7.30161 12.0234 7.46114C10.234 7.61958 8.65357 8.65154 7.79591 10.2217C7.13989 11.4227 6.79309 12.7856 6.79309 14.1632V17.3121C6.79309 19.1799 7.43512 21.0081 8.60083 22.4601C9.61732 23.7261 10.9951 24.6656 12.5287 25.1494V27.1181H4.52206C2.89017 27.118 1.56251 25.7844 1.56251 24.1451ZM13.4859 23.7922C10.4653 23.0939 8.35567 20.4292 8.35567 17.312V14.1631C8.35567 13.0466 8.6363 11.9427 9.16732 10.9707C9.7831 9.84334 10.8744 9.13146 12.1613 9.01756C13.4391 8.90482 14.6806 9.43186 15.481 10.4287C15.8499 10.888 16.2533 11.338 16.68 11.7663C18.2114 13.3031 19.9743 14.4819 21.6022 15.0699V17.3121C21.6022 20.4292 19.4925 23.094 16.4719 23.7923C16.1175 23.8742 15.8666 24.1898 15.8666 24.5534V27.1181H14.0913V24.5534C14.0913 24.1897 13.8403 23.8741 13.4859 23.7922ZM17.4657 28.6805L14.9302 36.2147L12.0341 28.6805H17.4657ZM4.0844 31.8896C4.0844 30.1201 5.52394 28.6806 7.2934 28.6806H10.36L13.8416 37.7379H4.0844V31.8896ZM16.0662 37.7379L19.1143 28.6806H20.4256C20.4051 28.9396 20.3946 29.2013 20.3946 29.4654C20.3946 32.9323 22.1919 35.986 24.9008 37.7379H16.0662Z" fill="#FFFEEC"/>
<path d="M39.9853 29.3125C39.919 28.9914 39.6547 28.7394 39.3299 28.6922C39.0042 28.6448 38.6739 28.8156 38.5244 29.1088C38.376 29.3999 38.4249 29.7604 38.6488 29.9997C38.8689 30.2349 39.2203 30.309 39.5172 30.1868C39.8574 30.0467 40.0574 29.6734 39.9853 29.3125Z" fill="#FFFEEC"/>
<path d="M35.3837 26.6534C35.3837 26.2219 35.0338 25.8721 34.6024 25.8721C33.7425 25.8721 33.043 26.5729 33.043 27.4343V28.0142C33.043 29.3182 32.1691 30.4211 30.9787 30.763V27.3271C31.3035 27.2324 31.5408 26.9325 31.5408 26.5771C31.5408 26.1457 31.1909 25.7959 30.7595 25.7959H29.6355C29.2041 25.7959 28.8542 26.1457 28.8542 26.5771C28.8542 26.9325 29.0915 27.2324 29.4162 27.3271V30.763C28.2259 30.4211 27.352 29.3182 27.352 28.0142V27.4343C27.352 26.5729 26.6525 25.8721 25.7926 25.8721C25.3611 25.8721 25.0098 26.2218 25.0098 26.6532C25.0098 27.0847 25.358 27.4343 25.7895 27.4343V28.0142C25.7895 30.1846 27.357 31.9947 29.4161 32.3655V34.331C29.0914 34.4257 28.8541 34.7257 28.8541 35.081C28.8541 35.5125 29.204 35.8622 29.6354 35.8622H30.7595C31.1909 35.8622 31.5407 35.5125 31.5407 35.081C31.5407 34.7256 31.3034 34.4257 30.9787 34.331V32.3656C33.0379 31.9947 34.6054 30.1846 34.6054 28.0143L34.602 27.4347H34.6023C35.0339 27.4346 35.3837 27.0849 35.3837 26.6534Z" fill="#FFFEEC"/>
</g>
<defs>
<clipPath id="clip0_61_472">
<rect width="40" height="40" fill="white"/>
</clipPath>
</defs>
</svg>
