<svg width="40" height="40" viewBox="0 0 40 40" fill="none" xmlns="http://www.w3.org/2000/svg">
<g clip-path="url(#clip0_2219_313)">
<path d="M12.2764 16.9098C11.845 16.9098 11.4951 16.56 11.4951 16.1285V15.5234C11.4951 15.092 11.845 14.7422 12.2764 14.7422C12.7078 14.7422 13.0576 15.092 13.0576 15.5234V16.1285C13.0576 16.5599 12.7078 16.9098 12.2764 16.9098Z" fill="#FFFEEC"/>
<path d="M17.7764 16.9098C17.345 16.9098 16.9951 16.56 16.9951 16.1285V15.5234C16.9951 15.092 17.345 14.7422 17.7764 14.7422C18.2078 14.7422 18.5576 15.092 18.5576 15.5234V16.1285C18.5576 16.5599 18.2079 16.9098 17.7764 16.9098Z" fill="#FFFEEC"/>
<path d="M14.9713 21.2695C14.3169 21.2695 13.702 21.0139 13.2396 20.5499C12.935 20.2443 12.9359 19.7496 13.2415 19.4451C13.5474 19.1405 14.0419 19.1415 14.3464 19.4471C14.5135 19.6148 14.7354 19.7071 14.9713 19.7071C15.2071 19.7071 15.429 19.6148 15.596 19.4471C15.9006 19.1414 16.3953 19.1406 16.701 19.4451C17.0066 19.7496 17.0075 20.2443 16.7029 20.5499C16.2405 21.0139 15.6256 21.2695 14.9713 21.2695Z" fill="#FFFEEC"/>
<path d="M38.8135 32.2698C38.4162 32.1022 37.9578 32.2886 37.7901 32.6863C36.4967 35.7551 33.5164 37.7381 30.1974 37.7381C25.6537 37.7381 21.9572 34.0271 21.9572 29.4657C21.9572 24.9042 25.6537 21.1932 30.1974 21.1932C33.5341 21.1932 36.5205 23.1907 37.8057 26.282C37.9712 26.6805 38.4286 26.869 38.8269 26.7035C39.2254 26.5379 39.4141 26.0806 39.2484 25.6822C37.7202 22.006 34.1675 19.6307 30.1974 19.6307C29.3021 19.6307 28.4345 19.7518 27.6099 19.9784V13.3729C27.6099 6.3849 21.9437 0.699707 14.9789 0.699707C8.01427 0.699707 2.34806 6.3849 2.34806 13.3729V20.1669C0.905943 20.9562 0 22.4652 0 24.1454C0 26.4055 1.65681 28.2847 3.81619 28.6256C3.01392 29.4796 2.52189 30.6283 2.52189 31.8898V38.5194C2.52189 38.9509 2.87174 39.3006 3.30314 39.3006H26.6546C26.957 39.3006 27.2193 39.1288 27.3491 38.8774C28.2509 39.1525 29.2072 39.3006 30.1974 39.3006C34.1464 39.3006 37.6919 36.9426 39.2299 33.2932C39.3976 32.8955 39.211 32.4374 38.8135 32.2698ZM1.56251 24.1454C1.56251 22.9233 2.29212 21.8397 3.42119 21.3848C3.7169 21.2658 3.91057 20.979 3.91057 20.6602V13.3728C3.91057 7.24631 8.87583 2.26214 14.979 2.26214C21.0822 2.26214 26.0473 7.24639 26.0473 13.3728V20.5561C23.3964 21.804 21.3896 24.2087 20.6768 27.1182H17.429V25.1495C18.9626 24.6658 20.3404 23.7262 21.3568 22.4601C22.5226 21.0082 23.1646 19.18 23.1646 17.3121V14.5009C23.1646 14.1505 22.9313 13.8429 22.5938 13.7485C21.0667 13.3213 19.3146 12.1969 17.7868 10.6636C17.3992 10.2747 17.0333 9.86656 16.6992 9.45054C15.5709 8.04553 13.8222 7.30185 12.0234 7.46139C10.234 7.61982 8.65357 8.65178 7.79591 10.222C7.13989 11.4229 6.79309 12.7859 6.79309 14.1635V17.3123C6.79309 19.1801 7.43512 21.0083 8.60083 22.4603C9.61732 23.7263 10.9951 24.6659 12.5287 25.1496V27.1183H4.52206C2.89017 27.1182 1.56251 25.7846 1.56251 24.1454ZM13.4859 23.7924C10.4653 23.0941 8.35567 20.4294 8.35567 17.3122V14.1634C8.35567 13.0468 8.6363 11.9429 9.16732 10.9709C9.7831 9.84359 10.8744 9.13171 12.1613 9.0178C13.4391 8.90507 14.6806 9.4321 15.481 10.429C15.8499 10.8883 16.2533 11.3383 16.68 11.7666C18.2114 13.3033 19.9743 14.4821 21.6022 15.0701V17.3123C21.6022 20.4294 19.4925 23.0942 16.4719 23.7925C16.1175 23.8745 15.8666 24.19 15.8666 24.5537V27.1184H14.0913V24.5537C14.0913 24.1899 13.8403 23.8743 13.4859 23.7924ZM17.4657 28.6807L14.9302 36.215L12.0341 28.6807H17.4657ZM4.0844 31.8898C4.0844 30.1203 5.52394 28.6808 7.2934 28.6808H10.36L13.8416 37.7381H4.0844V31.8898ZM16.0662 37.7381L19.1143 28.6808H20.4256C20.4051 28.9398 20.3946 29.2015 20.3946 29.4657C20.3946 32.9326 22.1919 35.9862 24.9008 37.7381H16.0662Z" fill="#FFFEEC"/>
<path d="M39.9853 29.3127C39.919 28.9916 39.6547 28.7397 39.3299 28.6924C39.0042 28.6451 38.6739 28.8158 38.5244 29.109C38.376 29.4001 38.4249 29.7607 38.6488 30C38.8689 30.2351 39.2203 30.3093 39.5172 30.187C39.8574 30.0469 40.0574 29.6737 39.9853 29.3127Z" fill="#FFFEEC"/>
<path d="M35.3837 26.6534C35.3837 26.2219 35.0338 25.8721 34.6024 25.8721C33.7425 25.8721 33.043 26.5729 33.043 27.4343V28.0142C33.043 29.3182 32.1691 30.4211 30.9787 30.763V27.3271C31.3035 27.2324 31.5408 26.9325 31.5408 26.5771C31.5408 26.1457 31.1909 25.7959 30.7595 25.7959H29.6355C29.2041 25.7959 28.8542 26.1457 28.8542 26.5771C28.8542 26.9325 29.0915 27.2324 29.4162 27.3271V30.763C28.2259 30.4211 27.352 29.3182 27.352 28.0142V27.4343C27.352 26.5729 26.6525 25.8721 25.7926 25.8721C25.3611 25.8721 25.0098 26.2218 25.0098 26.6532C25.0098 27.0847 25.358 27.4343 25.7895 27.4343V28.0142C25.7895 30.1846 27.357 31.9947 29.4161 32.3655V34.331C29.0914 34.4257 28.8541 34.7257 28.8541 35.081C28.8541 35.5125 29.204 35.8622 29.6354 35.8622H30.7595C31.1909 35.8622 31.5407 35.5125 31.5407 35.081C31.5407 34.7256 31.3034 34.4257 30.9787 34.331V32.3656C33.0379 31.9947 34.6054 30.1846 34.6054 28.0143L34.602 27.4347H34.6023C35.0339 27.4346 35.3837 27.0849 35.3837 26.6534Z" fill="#FFFEEC"/>
</g>
<defs>
<clipPath id="clip0_2219_313">
<rect width="40" height="40" fill="white"/>
</clipPath>
</defs>
</svg>
