<svg width="40" height="40" viewBox="0 0 40 40" fill="none" xmlns="http://www.w3.org/2000/svg">
<g clip-path="url(#clip0_61_425)">
<path d="M40 17.7861C40 13.091 38.1687 8.6771 34.8433 5.35734C31.5183 2.03781 27.0976 0.209717 22.3956 0.209717C17.4887 0.209717 12.7896 2.26672 9.46191 5.86204C8.8669 5.64164 8.23141 5.52664 7.57843 5.52664C7.57835 5.52664 7.57851 5.52664 7.57843 5.52664C6.13004 5.52664 4.76766 6.09228 3.74256 7.11925C3.72115 7.14074 3.70099 7.1634 3.68224 7.18722L2.45737 8.73945C1.28648 10.2233 0.495294 11.988 0.169427 13.8425C-0.159253 15.7131 -0.00784319 17.6416 0.607328 19.4195C1.0532 20.7082 1.61415 21.697 2.27471 22.3588L17.418 37.5266C17.9418 38.0514 18.6766 38.5177 19.6021 38.9126C20.9825 39.5016 22.4484 39.7902 23.9122 39.7901C26.3493 39.79 28.7802 38.9896 30.7955 37.4426L32.5376 36.1054C32.5648 36.0845 32.5907 36.0618 32.6149 36.0376C33.9891 34.6608 34.47 32.7226 34.0574 30.9529C37.8362 27.6144 40 22.8252 40 17.7861ZM31.5434 34.8987L29.8442 36.2031C27.0651 38.3364 23.3757 38.8239 20.2154 37.4754C19.4748 37.1595 18.9057 36.8053 18.5239 36.4228L3.38052 21.2549C2.88824 20.7617 2.45198 19.9722 2.08392 18.9086C1.00351 15.7859 1.60165 12.3462 3.68396 9.70736L4.87938 8.1924C5.60557 7.48059 6.56231 7.08918 7.57835 7.08918C8.60884 7.08918 9.57832 7.49192 10.3082 8.22311L12.8099 10.7295C14.2482 12.1705 14.2482 14.5151 12.8097 15.9562L10.0079 18.7649C9.70356 19.07 9.70363 19.5638 10.0081 19.8687L19.8869 29.762C20.0335 29.9087 20.2323 29.9912 20.4397 29.9912H20.44C20.6475 29.9912 20.8464 29.9085 20.9929 29.7617L23.7945 26.9532C24.4913 26.255 25.417 25.8706 26.4008 25.8706C27.3847 25.8706 28.3102 26.255 29.0071 26.9532L31.5088 29.4595C33.0038 30.9572 33.0153 33.3868 31.5434 34.8987ZM30.3491 26.0858L30.1131 25.8494C29.121 24.8555 27.8027 24.3081 26.4009 24.3081C24.9991 24.3081 23.6808 24.8555 22.6885 25.8495L20.4395 28.104L11.6649 19.3164L13.9158 17.0599C15.8971 15.0749 15.9596 11.8845 14.1034 9.82346C16.2684 7.57848 19.2625 6.30033 22.3956 6.30033C28.7402 6.30033 33.9018 11.4528 33.9018 17.7861C33.9018 20.9259 32.613 23.9227 30.3491 26.0858ZM32.6149 28.3558L31.4532 27.1919C34.0096 24.7365 35.4643 21.3422 35.4643 17.7861C35.4643 10.5912 29.6017 4.73779 22.3956 4.73779C18.8498 4.73779 15.4609 6.17915 13.0043 8.71234L11.4141 7.11925C11.243 6.94777 11.0624 6.78917 10.8737 6.64393C13.888 3.5405 18.0525 1.77225 22.3956 1.77225C31.2411 1.77225 38.4374 8.95602 38.4374 17.7861C38.4374 22.1909 36.6222 26.3866 33.4336 29.4063C33.2097 29.0316 32.9368 28.6783 32.6149 28.3558Z" fill="#FFFEEC"/>
<path d="M27.7872 17.8347H27.6996C27.709 16.1905 27.7139 14.4333 27.6936 14.189C27.6479 13.6377 27.3168 13.1884 26.8502 13.0444C26.3874 12.9016 25.8962 13.0812 25.5359 13.5251C25.1469 14.0045 23.3514 17.255 22.8104 18.2398C22.6774 18.4818 22.6821 18.7761 22.8227 19.0138C22.9634 19.2515 23.219 19.3972 23.4951 19.3972H26.1265C26.1233 19.8355 26.1199 20.2555 26.1167 20.6351C26.113 21.0666 26.4598 21.4193 26.8913 21.423C26.8935 21.4231 26.8959 21.4231 26.8981 21.4231C27.3264 21.4231 27.6756 21.0777 27.6792 20.6485C27.6812 20.4142 27.685 19.9605 27.6892 19.3972H27.7871C28.2186 19.3972 28.5683 19.0475 28.5683 18.616C28.5684 18.1845 28.2186 17.8347 27.7872 17.8347ZM26.1367 17.8347H24.8201C25.3084 16.9576 25.7845 16.1161 26.1455 15.4954C26.1452 16.1365 26.1417 16.9702 26.1367 17.8347Z" fill="#FFFEEC"/>
<path d="M21.6502 20.0785C20.9632 20.0871 20.2342 20.0928 19.6298 20.094C20.0092 19.5844 20.5371 18.8601 21.2509 17.836C21.6879 17.209 21.9728 16.6165 22.0978 16.0749C22.1271 15.9512 22.1515 15.7155 22.1516 15.6337C22.153 14.2345 21.0166 13.0962 19.6215 13.0962C18.4149 13.0962 17.3707 13.9571 17.1387 15.1434C17.0559 15.5669 17.332 15.9773 17.7555 16.0601C18.1789 16.1428 18.5894 15.8667 18.6722 15.4433C18.7611 14.9887 19.1603 14.6587 19.6215 14.6587C20.1409 14.6587 20.566 15.0733 20.5881 15.5914L20.5669 15.7583C20.4817 16.0972 20.2806 16.4955 19.9689 16.9427C18.8863 18.4961 18.2403 19.3456 17.8933 19.802C17.4645 20.3658 17.2688 20.6232 17.4019 21.0552C17.4801 21.309 17.6723 21.504 17.9292 21.5899C18.0336 21.6249 18.1338 21.6584 19.4627 21.6584C19.9842 21.6584 20.6953 21.6533 21.6698 21.6409C22.1012 21.6355 22.4466 21.2813 22.4412 20.8499C22.4358 20.4184 22.0803 20.0741 21.6502 20.0785Z" fill="#FFFEEC"/>
</g>
<defs>
<clipPath id="clip0_61_425">
<rect width="40" height="40" fill="white"/>
</clipPath>
</defs>
</svg>
