<svg width="40" height="40" viewBox="0 0 40 40" fill="none" xmlns="http://www.w3.org/2000/svg">
<g clip-path="url(#clip0_2219_338)">
<path d="M40 17.7859C40 13.0908 38.1687 8.67686 34.8433 5.35709C31.5183 2.03756 27.0976 0.209473 22.3956 0.209473C17.4887 0.209473 12.7896 2.26647 9.46191 5.86179C8.8669 5.6414 8.23141 5.52639 7.57843 5.52639C7.57835 5.52639 7.57851 5.52639 7.57843 5.52639C6.13004 5.52639 4.76766 6.09203 3.74256 7.11901C3.72115 7.14049 3.70099 7.16315 3.68224 7.18698L2.45737 8.7392C1.28648 10.2231 0.495294 11.9877 0.169427 13.8423C-0.159253 15.7129 -0.00784319 17.6414 0.607328 19.4193C1.0532 20.7079 1.61415 21.6968 2.27471 22.3586L17.418 37.5264C17.9418 38.0511 18.6766 38.5175 19.6021 38.9123C20.9825 39.5013 22.4484 39.7899 23.9122 39.7899C26.3493 39.7898 28.7802 38.9894 30.7955 37.4424L32.5376 36.1052C32.5648 36.0842 32.5907 36.0616 32.6149 36.0373C33.9891 34.6605 34.47 32.7223 34.0574 30.9527C37.8362 27.6142 40 22.825 40 17.7859ZM31.5434 34.8985L29.8442 36.2029C27.0651 38.3362 23.3757 38.8237 20.2154 37.4752C19.4748 37.1592 18.9057 36.805 18.5239 36.4225L3.38052 21.2547C2.88824 20.7614 2.45198 19.972 2.08392 18.9083C1.00351 15.7856 1.60165 12.3459 3.68396 9.70712L4.87938 8.19216C5.60557 7.48035 6.56231 7.08893 7.57835 7.08893C8.60884 7.08893 9.57832 7.49167 10.3082 8.22286L12.8099 10.7293C14.2482 12.1702 14.2482 14.5148 12.8097 15.9559L10.0079 18.7647C9.70356 19.0698 9.70363 19.5636 10.0081 19.8685L19.8869 29.7617C20.0335 29.9085 20.2323 29.991 20.4397 29.991H20.44C20.6475 29.991 20.8464 29.9083 20.9929 29.7614L23.7945 26.9529C24.4913 26.2548 25.417 25.8703 26.4008 25.8703C27.3847 25.8703 28.3102 26.2548 29.0071 26.9529L31.5088 29.4593C33.0038 30.957 33.0153 33.3866 31.5434 34.8985ZM30.3491 26.0855L30.1131 25.8491C29.121 24.8552 27.8027 24.3078 26.4009 24.3078C24.9991 24.3078 23.6808 24.8552 22.6885 25.8493L20.4395 28.1038L11.6649 19.3162L13.9158 17.0596C15.8971 15.0747 15.9596 11.8843 14.1034 9.82321C16.2684 7.57824 19.2625 6.30008 22.3956 6.30008C28.7402 6.30008 33.9018 11.4525 33.9018 17.7858C33.9018 20.9257 32.613 23.9225 30.3491 26.0855ZM32.6149 28.3555L31.4532 27.1917C34.0096 24.7363 35.4643 21.3419 35.4643 17.7858C35.4643 10.591 29.6017 4.73755 22.3956 4.73755C18.8498 4.73755 15.4609 6.17891 13.0043 8.71209L11.4141 7.11901C11.243 6.94752 11.0624 6.78892 10.8737 6.64369C13.888 3.54025 18.0525 1.77201 22.3956 1.77201C31.2411 1.77201 38.4374 8.95577 38.4374 17.7858C38.4374 22.1907 36.6222 26.3863 33.4336 29.4061C33.2097 29.0314 32.9368 28.678 32.6149 28.3555Z" fill="#FFFEEC"/>
<path d="M27.7872 17.8345H27.6996C27.709 16.1903 27.7139 14.4331 27.6936 14.1887C27.6479 13.6375 27.3168 13.1882 26.8502 13.0442C26.3874 12.9014 25.8962 13.081 25.5359 13.5248C25.1469 14.0042 23.3514 17.2548 22.8104 18.2396C22.6774 18.4816 22.6821 18.7758 22.8227 19.0136C22.9634 19.2512 23.219 19.397 23.4951 19.397H26.1265C26.1233 19.8352 26.1199 20.2553 26.1167 20.6348C26.113 21.0663 26.4598 21.4191 26.8913 21.4228C26.8935 21.4228 26.8959 21.4228 26.8981 21.4228C27.3264 21.4228 27.6756 21.0774 27.6792 20.6483C27.6812 20.414 27.685 19.9602 27.6892 19.397H27.7871C28.2186 19.397 28.5683 19.0472 28.5683 18.6157C28.5684 18.1842 28.2186 17.8345 27.7872 17.8345ZM26.1367 17.8345H24.8201C25.3084 16.9573 25.7845 16.1158 26.1455 15.4951C26.1452 16.1362 26.1417 16.97 26.1367 17.8345Z" fill="#FFFEEC"/>
<path d="M21.6502 20.0785C20.9632 20.0871 20.2342 20.0928 19.6298 20.094C20.0092 19.5844 20.5371 18.8601 21.2509 17.836C21.6879 17.209 21.9728 16.6165 22.0978 16.0749C22.1271 15.9512 22.1515 15.7155 22.1516 15.6337C22.153 14.2345 21.0166 13.0962 19.6215 13.0962C18.4149 13.0962 17.3707 13.9571 17.1387 15.1434C17.0559 15.5669 17.332 15.9773 17.7555 16.0601C18.1789 16.1428 18.5894 15.8667 18.6722 15.4433C18.7611 14.9887 19.1603 14.6587 19.6215 14.6587C20.1409 14.6587 20.566 15.0733 20.5881 15.5914L20.5669 15.7583C20.4817 16.0972 20.2806 16.4955 19.9689 16.9427C18.8863 18.4961 18.2403 19.3456 17.8933 19.802C17.4645 20.3658 17.2688 20.6232 17.4019 21.0552C17.4801 21.309 17.6723 21.504 17.9292 21.5899C18.0336 21.6249 18.1338 21.6584 19.4627 21.6584C19.9842 21.6584 20.6953 21.6533 21.6698 21.6409C22.1012 21.6355 22.4466 21.2813 22.4412 20.8499C22.4358 20.4184 22.0803 20.0741 21.6502 20.0785Z" fill="#FFFEEC"/>
</g>
<defs>
<clipPath id="clip0_2219_338">
<rect width="40" height="40" fill="white"/>
</clipPath>
</defs>
</svg>
