<svg width="40" height="40" viewBox="0 0 40 40" fill="none" xmlns="http://www.w3.org/2000/svg">
<path d="M32.667 4.53398C29.7109 1.61016 25.7965 0 21.645 0C17.4934 0 13.5791 1.61016 10.6229 4.53391C7.66449 7.46 6.03519 11.3357 6.03519 15.4473C6.03519 16.4392 5.20113 18.1701 3.74699 20.1962C2.46816 21.978 2.64511 23.2198 3.01863 23.9478C3.42128 24.7323 4.43558 25.6542 6.96183 25.8115V29.9407C6.96183 32.5752 9.12496 34.7185 11.7839 34.7185C14.258 34.7185 15.5403 34.8091 16.1361 35.324C16.7206 35.8291 16.9014 37.0491 17.047 39.2697C17.0739 39.6805 17.415 39.9998 17.8266 39.9998H30.9499C31.166 39.9998 31.3724 39.9103 31.5201 39.7527C31.6678 39.595 31.7435 39.3831 31.7295 39.1675C31.5932 37.0891 31.5491 35.6453 31.582 34.34C31.5928 33.9087 31.2519 33.5502 30.8207 33.5393C30.388 33.5312 30.0309 33.8694 30.02 34.3007C29.9905 35.4716 30.0201 36.7406 30.1187 38.4373H18.5548C18.399 36.4138 18.1464 34.9962 17.1577 34.1418C16.0939 33.2223 14.4178 33.156 11.7839 33.156C9.9866 33.156 8.52433 31.7136 8.52433 29.9407V28.5682C8.56793 28.5758 8.61246 28.5805 8.65824 28.5805C9.37683 28.5805 10.3012 28.8461 11.0132 29.2571C11.1362 29.3282 11.2705 29.3619 11.403 29.3619C11.673 29.3619 11.9356 29.2218 12.0803 28.9712C12.2961 28.5975 12.1681 28.1197 11.7944 27.9039C10.848 27.3574 9.64621 27.0179 8.65824 27.0179C8.61253 27.0179 8.56793 27.0227 8.52433 27.0302V25.0535C8.52433 24.622 8.17449 24.2723 7.74308 24.2723C5.98886 24.2723 4.74238 23.8842 4.40878 23.2342C4.16168 22.7527 4.37753 21.9973 5.01636 21.1071C6.19394 19.4664 7.59769 17.1526 7.59769 15.4472C7.59777 7.79125 13.8993 1.5625 21.645 1.5625C29.3906 1.5625 35.6922 7.79125 35.6922 15.4474C35.6922 17.9934 34.9802 20.4877 33.6331 22.6606C32.6482 24.2492 31.9022 25.7194 31.3524 27.1549C31.1981 27.5578 31.3996 28.0096 31.8025 28.1639C32.2055 28.3182 32.6571 28.1167 32.8116 27.7137C33.3257 26.3713 34.0289 24.9877 34.9611 23.4839C36.4617 21.0635 37.2548 18.2845 37.2548 15.4474C37.2547 11.3359 35.6255 7.46 32.667 4.53398Z" fill="#FFFEEC"/>
<path d="M20.3402 17.8916C22.9403 18.1591 25.6291 18.4358 28.0985 19.8615C29.0789 20.4275 29.8994 20.626 30.5682 20.626C31.201 20.626 31.698 20.4484 32.066 20.2359C33.3583 19.4897 34.1299 17.6996 34.1299 15.4474C34.1299 12.1521 32.816 9.05148 30.4303 6.7168C28.0636 4.40055 24.9436 3.125 21.6451 3.125C17.8936 3.125 14.3669 4.78703 11.9689 7.685C10.385 9.59945 9.81792 11.3887 10.2837 13.0031C10.7823 14.7312 12.4387 16.1029 15.0739 16.9698C16.7552 17.5227 18.5778 17.7102 20.3402 17.8916ZM11.785 12.5699C11.471 11.4819 11.938 10.1735 13.1728 8.68109C15.2729 6.14312 18.3609 4.6875 21.6451 4.6875C27.6677 4.6875 32.5674 9.51437 32.5674 15.4474C32.5674 17.0845 32.0639 18.4329 31.2848 18.8827C30.7019 19.2192 29.8928 19.0932 28.8798 18.5084C26.1211 16.9156 23.2636 16.6216 20.5002 16.3373C18.7428 16.1565 17.0831 15.9857 15.5622 15.4854C13.4703 14.7973 12.1289 13.762 11.785 12.5699Z" fill="#FFFEEC"/>
<path d="M20.7616 14.7991C21.2109 14.8428 21.6354 14.8841 22.0485 14.932C24.6283 15.231 26.4453 15.6658 28.1239 16.3858C28.4297 16.517 28.749 16.5816 29.059 16.5816C29.4936 16.5816 29.9097 16.4545 30.2443 16.2057C30.7746 15.8115 31.0308 15.1637 30.9473 14.4283C30.6929 12.188 29.5982 10.1173 27.8646 8.59781C26.1373 7.08375 23.9286 6.25 21.645 6.25C18.8392 6.25 16.1999 7.48914 14.3981 9.65125C13.8483 10.2202 13.6325 11.0261 13.8204 11.8155C14.059 12.8169 14.8717 13.6136 16.0502 14.0012C17.5155 14.4831 19.1657 14.6437 20.7616 14.7991ZM15.3405 11.4534C15.275 11.1786 15.3445 10.9141 15.531 10.7277C15.5483 10.7103 15.5648 10.6921 15.5804 10.6733C17.0847 8.85516 19.2952 7.8125 21.645 7.8125C25.5582 7.8125 28.9622 10.7959 29.3946 14.6045C29.4145 14.7795 29.3866 14.8962 29.3119 14.9518C29.2088 15.0286 28.979 15.0525 28.7397 14.9498C26.4314 13.9598 24.0473 13.5908 22.2282 13.38C21.8009 13.3305 21.3696 13.2885 20.9129 13.2441C19.4017 13.097 17.8391 12.9449 16.5385 12.517C15.8871 12.3027 15.4504 11.915 15.3405 11.4534Z" fill="#FFFEEC"/>
<path d="M20.4142 11.5898C20.8817 11.3624 21.4017 11.2422 21.9179 11.2422C22.724 11.2422 23.5143 11.5324 24.143 12.0595C24.2893 12.1822 24.4673 12.2421 24.6444 12.2421C24.8674 12.2421 25.089 12.147 25.2435 11.9627C25.5208 11.6321 25.4774 11.1393 25.1468 10.8621C24.2372 10.0996 23.0905 9.67969 21.9179 9.67969C21.1662 9.67969 20.4098 9.85437 19.7306 10.1848C19.3427 10.3736 19.1812 10.8412 19.3699 11.2291C19.5586 11.6172 20.0266 11.7787 20.4142 11.5898Z" fill="#FFFEEC"/>
<path d="M10.7186 16.7612H10.7179C10.2865 16.7612 9.93701 17.111 9.93701 17.5425C9.93701 17.974 10.2872 18.3237 10.7186 18.3237C11.1501 18.3237 11.4999 17.974 11.4999 17.5425C11.4999 17.111 11.1501 16.7612 10.7186 16.7612Z" fill="#FFFEEC"/>
<path d="M31.1355 31.6021C31.5669 31.6021 31.9167 31.2523 31.9167 30.8208C31.9167 30.3893 31.5669 30.0396 31.1355 30.0396H31.1349C30.7035 30.0396 30.354 30.3893 30.354 30.8208C30.354 31.2523 30.7041 31.6021 31.1355 31.6021Z" fill="#FFFEEC"/>
</svg>
