<svg width="30" height="30" viewBox="0 0 30 30" fill="none" xmlns="http://www.w3.org/2000/svg">
<g clip-path="url(#clip0_4079_1243)">
<path d="M14.999 0C11.2331 0.0159975 7.6099 1.44238 4.84371 3.9978C2.07751 6.55323 0.369106 10.0521 0.0553263 13.8049C-0.258453 17.5577 0.845167 21.2919 3.14859 24.2712C5.45201 27.2505 8.78806 29.2588 12.499 29.8999V18.205H8.87399V14.0002H12.499V10.896C12.499 7.296 14.689 5.33386 17.8877 5.33386C18.9666 5.33002 20.0449 5.38528 21.1177 5.49988V9.2627H18.899C17.1602 9.2627 16.8252 10.0923 16.8252 11.3098V13.996H20.9752L20.434 18.205H16.824V30C20.6207 29.5231 24.0935 27.6185 26.5368 24.6735C28.9801 21.7284 30.2105 17.9638 29.9782 14.1443C29.7458 10.3248 28.0681 6.73666 25.2858 4.1095C22.5036 1.48233 18.8256 0.0131603 14.999 0Z" fill="white"/>
</g>
<defs>
<clipPath id="clip0_4079_1243">
<rect width="30" height="30" fill="white"/>
</clipPath>
</defs>
</svg>
