<svg width="31" height="31" viewBox="0 0 31 31" fill="none" xmlns="http://www.w3.org/2000/svg">
<g clip-path="url(#clip0_2084_131)">
<path d="M15.3222 0.666016C11.5564 0.681853 7.93314 2.09392 5.16695 4.62371C2.40076 7.15349 0.692348 10.6173 0.378569 14.3324C0.0647888 18.0476 1.16841 21.7443 3.47183 24.6937C5.77525 27.6432 9.1113 29.6312 12.8222 30.2659V18.6883H9.19723V14.5258H12.8222V11.4527C12.8222 7.88881 15.0122 5.94636 18.211 5.94636C19.2899 5.94255 20.3682 5.99727 21.441 6.11071V9.83578H19.2222C17.4835 9.83578 17.1485 10.6571 17.1485 11.8624V14.5216H21.2985L20.7572 18.6883H17.1472V30.365C20.944 29.8929 24.4168 28.0074 26.86 25.0919C29.3033 22.1764 30.5338 18.4496 30.3014 14.6684C30.069 10.8872 28.3913 7.33509 25.6091 4.73428C22.8268 2.13348 19.1488 0.679044 15.3222 0.666016Z" fill="white"/>
</g>
<defs>
<clipPath id="clip0_2084_131">
<rect width="30" height="29.699" fill="white" transform="translate(0.322266 0.666016)"/>
</clipPath>
</defs>
</svg>
