<svg width="30" height="30" viewBox="0 0 30 30" fill="none" xmlns="http://www.w3.org/2000/svg">
<g clip-path="url(#clip0_4075_698)">
<path d="M14.9992 0C11.2334 0.0159975 7.61014 1.44238 4.84395 3.9978C2.07776 6.55323 0.36935 10.0521 0.0555705 13.8049C-0.258209 17.5577 0.845411 21.2919 3.14883 24.2712C5.45225 27.2505 8.7883 29.2588 12.4992 29.8999V18.205H8.87423V14.0002H12.4992V10.896C12.4992 7.296 14.6892 5.33386 17.888 5.33386C18.9669 5.33002 20.0452 5.38528 21.118 5.49988V9.2627H18.8992C17.1605 9.2627 16.8255 10.0923 16.8255 11.3098V13.996H20.9755L20.4342 18.205H16.8242V30C20.621 29.5231 24.0938 27.6185 26.537 24.6735C28.9803 21.7284 30.2108 17.9638 29.9784 14.1443C29.746 10.3248 28.0683 6.73666 25.2861 4.1095C22.5038 1.48233 18.8258 0.0131603 14.9992 0Z" fill="white"/>
</g>
<defs>
<clipPath id="clip0_4075_698">
<rect width="30" height="30" fill="white"/>
</clipPath>
</defs>
</svg>
