<svg width="30" height="30" viewBox="0 0 30 30" fill="none" xmlns="http://www.w3.org/2000/svg">
<g clip-path="url(#clip0_114_610)">
<path d="M14.9992 0.000488281C11.2334 0.0164858 7.61014 1.44287 4.84395 3.99829C2.07776 6.55372 0.36935 10.0526 0.0555705 13.8054C-0.258209 17.5582 0.845411 21.2924 3.14883 24.2717C5.45225 27.251 8.7883 29.2592 12.4992 29.9004V18.2054H8.87423V14.0007H12.4992V10.8965C12.4992 7.29648 14.6892 5.33435 17.888 5.33435C18.9669 5.3305 20.0452 5.38577 21.118 5.50037V9.26318H18.8992C17.1605 9.26318 16.8255 10.0928 16.8255 11.3103V13.9965H20.9755L20.4342 18.2054H16.8242V30.0005C20.621 29.5236 24.0938 27.619 26.537 24.674C28.9803 21.7289 30.2108 17.9643 29.9784 14.1448C29.746 10.3252 28.0683 6.73715 25.2861 4.10999C22.5038 1.48282 18.8258 0.0136486 14.9992 0.000488281Z" fill="white"/>
</g>
<defs>
<clipPath id="clip0_114_610">
<rect width="30" height="30" fill="white" transform="translate(0 0.000488281)"/>
</clipPath>
</defs>
</svg>
