<svg width="30" height="30" viewBox="0 0 30 30" fill="none" xmlns="http://www.w3.org/2000/svg">
<g clip-path="url(#clip0_4079_965)">
<path d="M14.999 0.000488281C11.2331 0.0164858 7.6099 1.44287 4.84371 3.99829C2.07751 6.55372 0.369106 10.0526 0.0553263 13.8054C-0.258453 17.5582 0.845167 21.2924 3.14859 24.2717C5.45201 27.251 8.78806 29.2592 12.499 29.9004V18.2054H8.87399V14.0007H12.499V10.8965C12.499 7.29648 14.689 5.33435 17.8877 5.33435C18.9666 5.3305 20.0449 5.38577 21.1177 5.50037V9.26318H18.899C17.1602 9.26318 16.8252 10.0928 16.8252 11.3103V13.9965H20.9752L20.434 18.2054H16.824V30.0005C20.6207 29.5236 24.0935 27.619 26.5368 24.674C28.9801 21.7289 30.2105 17.9643 29.9782 14.1448C29.7458 10.3252 28.0681 6.73715 25.2858 4.10999C22.5036 1.48282 18.8256 0.0136486 14.999 0.000488281Z" fill="white"/>
</g>
<defs>
<clipPath id="clip0_4079_965">
<rect width="30" height="30" fill="white" transform="translate(0 0.000488281)"/>
</clipPath>
</defs>
</svg>
