<svg width="30" height="30" viewBox="0 0 30 30" fill="none" xmlns="http://www.w3.org/2000/svg">
<g clip-path="url(#clip0_4079_865)">
<path d="M14.9992 0.000427246C11.2334 0.0164248 7.61014 1.44281 4.84395 3.99823C2.07776 6.55365 0.36935 10.0526 0.0555705 13.8054C-0.258209 17.5582 0.845411 21.2924 3.14883 24.2717C5.45225 27.251 8.7883 29.2592 12.4992 29.9003V18.2054H8.87423V14.0007H12.4992V10.8964C12.4992 7.29642 14.6892 5.33429 17.888 5.33429C18.9669 5.33044 20.0452 5.38571 21.118 5.50031V9.26312H18.8992C17.1605 9.26312 16.8255 10.0927 16.8255 11.3102V13.9964H20.9755L20.4342 18.2054H16.8242V30.0004C20.621 29.5235 24.0938 27.6189 26.537 24.6739C28.9803 21.7288 30.2108 17.9642 29.9784 14.1447C29.746 10.3252 28.0683 6.73709 25.2861 4.10992C22.5038 1.48276 18.8258 0.0135875 14.9992 0.000427246Z" fill="white"/>
</g>
<defs>
<clipPath id="clip0_4079_865">
<rect width="30" height="30" fill="white" transform="translate(0 0.000427246)"/>
</clipPath>
</defs>
</svg>
