<svg width="100" height="100" viewBox="0 0 100 100" fill="none" xmlns="http://www.w3.org/2000/svg">
<g clip-path="url(#clip0_2219_465)">
<path d="M68.75 68.75L62.1875 75.3125V77.6562L80.4688 81.875V72.0312L68.75 68.75Z" fill="#5782BB"/>
<path d="M30.7812 31.7188L23.2812 39.6875L18.5938 18.5938H27.9688L30.7812 31.7188Z" fill="#5782BB"/>
<path d="M62.5 50H70.8333C70.8333 38.5 61.5 29.1667 50 29.1667V37.5C56.9167 37.5 62.5 43.0833 62.5 50ZM79.1667 50H87.5C87.5 29.2917 70.7083 12.5 50 12.5V20.8333C66.125 20.8333 79.1667 33.875 79.1667 50ZM83.3333 64.5833C78.125 64.5833 73.125 63.75 68.4583 62.2083C68.0417 62.0833 67.5833 62 67.1667 62C66.0833 62 65.0417 62.4167 64.2083 63.2083L55.0417 72.375C43.25 66.375 33.5833 56.75 27.5833 44.9167L36.75 35.7083C37.9167 34.625 38.25 33 37.7917 31.5417C36.25 26.875 35.4167 21.875 35.4167 16.6667C35.4167 14.375 33.5417 12.5 31.25 12.5H16.6667C14.375 12.5 12.5 14.375 12.5 16.6667C12.5 55.7917 44.2083 87.5 83.3333 87.5C85.625 87.5 87.5 85.625 87.5 83.3333V68.75C87.5 66.4583 85.625 64.5833 83.3333 64.5833ZM20.9583 20.8333H27.2083C27.5 24.5 28.125 28.125 29.0833 31.5833L24.0833 36.625C22.4167 31.5833 21.3333 26.3333 20.9583 20.8333ZM79.1667 79.0417C73.6667 78.6667 68.3333 77.5833 63.3333 75.875L68.3333 70.875C71.875 71.875 75.5 72.5 79.1667 72.75V79.0417Z" fill="#111111"/>
</g>
<defs>
<clipPath id="clip0_2219_465">
<rect width="100" height="100" fill="white"/>
</clipPath>
</defs>
</svg>
