<svg width="100" height="100" viewBox="0 0 100 100" fill="none" xmlns="http://www.w3.org/2000/svg">
<g clip-path="url(#clip0_2219_440)">
<path d="M61.875 7.5C61.875 28 39.7917 40.2083 28.75 43.75L25 32.5L30 15L45.625 3.75L61.875 7.5Z" fill="#5782BB"/>
<path d="M78.8628 28.8902C78.8628 12.9601 65.9019 0 49.9725 0C34.0424 0 21.0823 12.9601 21.0823 28.8902C21.0823 38.7573 26.0559 47.4838 33.6258 52.6978C26.5579 55.1369 20.079 59.166 14.6362 64.6088C5.19791 74.0471 0 86.5967 0 99.9443H7.80792C7.80792 76.6953 26.7227 57.7805 49.9725 57.7805C65.9019 57.7805 78.8628 44.8204 78.8628 28.8902ZM49.9725 49.9725C38.3476 49.9725 28.8902 40.5151 28.8902 28.8902C28.8902 17.2653 38.3476 7.80792 49.9725 7.80792C61.5967 7.80792 71.0541 17.2653 71.0541 28.8902C71.0541 40.5151 61.5967 49.9725 49.9725 49.9725ZM100 71.8353L81.6231 90.2122L76.1017 84.6909L85.2486 75.544H78.4767C69.1216 75.544 61.5036 83.1558 61.496 92.511L61.4891 99.9474L53.6812 99.9413L53.6873 92.5041C53.6987 78.8467 64.8193 67.7353 78.4767 67.7353H84.8579L76.1017 58.979L81.6231 53.4584L100 71.8353Z" fill="#111111"/>
</g>
<defs>
<clipPath id="clip0_2219_440">
<rect width="100" height="100" fill="white"/>
</clipPath>
</defs>
</svg>
