<svg width="31" height="31" viewBox="0 0 31 31" fill="none" xmlns="http://www.w3.org/2000/svg">
<g clip-path="url(#clip0_2084_135)">
<path d="M30.3231 6.55046C29.1947 7.04286 28.0012 7.3698 26.7794 7.52153C28.0669 6.75819 29.0295 5.5491 29.4844 4.1231C28.2786 4.83771 26.9597 5.3411 25.5844 5.61174C24.7413 4.71117 23.6468 4.08523 22.4432 3.81487C21.2396 3.5445 19.9825 3.64213 18.8352 4.09563C17.688 4.54913 16.7037 5.33732 16.0103 6.35759C15.3168 7.37786 14.9463 8.58345 14.9469 9.81706C14.9414 10.2884 14.9892 10.7584 15.0894 11.219C12.6426 11.0993 10.2486 10.4647 8.06399 9.35625C5.87939 8.24779 3.95337 6.69047 2.41187 4.78655C1.62079 6.13969 1.3759 7.74385 1.72713 9.27141C2.07836 10.799 2.99926 12.135 4.3019 13.0068C3.3284 12.9801 2.37546 12.7204 1.52312 12.2493V12.3171C1.52501 13.7371 2.01598 15.113 2.91342 16.2135C3.81086 17.3141 5.06001 18.072 6.45064 18.3595C5.92454 18.4985 5.38224 18.5661 4.83813 18.5616C4.44756 18.5685 4.05739 18.5333 3.67438 18.4566C4.07176 19.6779 4.83818 20.7464 5.86802 21.5138C6.89786 22.2813 8.14042 22.7102 9.42439 22.7419C7.24758 24.4446 4.56301 25.3689 1.79938 25.367C1.30768 25.3704 0.816261 25.3419 0.328125 25.2828C2.97285 26.977 6.02483 27.9288 9.16384 28.0373C12.3029 28.1457 15.4132 27.4069 18.1686 25.8992C20.9239 24.3915 23.2227 22.1701 24.8238 19.4679C26.4249 16.7658 27.2692 13.6824 27.2681 10.5416C27.2681 10.2691 27.2581 10.0069 27.2456 9.74687C28.4572 8.87735 29.5001 7.79406 30.3231 6.55046Z" fill="white"/>
</g>
<defs>
<clipPath id="clip0_2084_135">
<rect width="30" height="29.699" fill="white" transform="translate(0.322266 0.665527)"/>
</clipPath>
</defs>
</svg>
