<svg width="30" height="30" viewBox="0 0 30 30" fill="none" xmlns="http://www.w3.org/2000/svg">
<g clip-path="url(#clip0_4079_869)">
<path d="M30 5.88494C28.8716 6.37733 27.6781 6.70427 26.4563 6.85601C27.7438 6.09266 28.7064 4.88357 29.1613 3.45757C27.9555 4.17219 26.6365 4.67557 25.2613 4.94622C24.4182 4.04564 23.3237 3.4197 22.1201 3.14934C20.9165 2.87898 19.6594 2.9766 18.5121 3.4301C17.3649 3.8836 16.3806 4.67179 15.6872 5.69206C14.9937 6.71234 14.6232 7.91792 14.6238 9.15154C14.6183 9.62291 14.6661 10.0929 14.7662 10.5535C12.3194 10.4338 9.92547 9.79918 7.74087 8.69072C5.55627 7.58227 3.63025 6.02495 2.08875 4.12102C1.29767 5.47417 1.05278 7.07832 1.40401 8.60588C1.75523 10.1334 2.67614 11.4695 3.97878 12.3412C3.00528 12.3146 2.05234 12.0549 1.2 11.5838V11.6515C1.20189 13.0716 1.69286 14.4475 2.5903 15.548C3.48774 16.6485 4.73689 17.4064 6.12752 17.694C5.60142 17.8329 5.05912 17.9006 4.51501 17.896C4.12444 17.903 3.73427 17.8678 3.35126 17.7911C3.74864 19.0124 4.51506 20.0809 5.5449 20.8483C6.57474 21.6158 7.8173 22.0447 9.10127 22.0763C6.92446 23.779 4.23989 24.7033 1.47626 24.7015C0.984559 24.7049 0.493141 24.6764 0.00500488 24.6172C2.64973 26.3115 5.70171 27.2633 8.84072 27.3718C11.9797 27.4802 15.0901 26.7414 17.8454 25.2337C20.6008 23.726 22.8996 21.5046 24.5007 18.8024C26.1017 16.1002 26.946 13.0169 26.945 9.87602C26.945 9.60352 26.935 9.34135 26.9225 9.08135C28.1341 8.21182 29.177 7.12854 30 5.88494Z" fill="white"/>
</g>
<defs>
<clipPath id="clip0_4079_869">
<rect width="30" height="30" fill="white"/>
</clipPath>
</defs>
</svg>
