<svg width="30" height="30" viewBox="0 0 30 30" fill="none" xmlns="http://www.w3.org/2000/svg">
<g clip-path="url(#clip0_4072_143)">
<path d="M29.9999 5.88494C28.8715 6.37733 27.6779 6.70427 26.4561 6.85601C27.7437 6.09266 28.7062 4.88357 29.1611 3.45757C27.9554 4.17219 26.6364 4.67557 25.2612 4.94622C24.4181 4.04564 23.3236 3.4197 22.12 3.14934C20.9164 2.87898 19.6592 2.9766 18.512 3.4301C17.3648 3.8836 16.3805 4.67179 15.687 5.69206C14.9936 6.71234 14.6231 7.91792 14.6236 9.15154C14.6182 9.62291 14.6659 10.0929 14.7661 10.5535C12.3193 10.4338 9.92535 9.79918 7.74075 8.69072C5.55614 7.58227 3.63012 6.02495 2.08862 4.12102C1.29755 5.47417 1.05266 7.07832 1.40389 8.60588C1.75511 10.1334 2.67601 11.4695 3.97865 12.3412C3.00515 12.3146 2.05222 12.0549 1.19987 11.5838V11.6515C1.20177 13.0716 1.69274 14.4475 2.59018 15.548C3.48762 16.6485 4.73677 17.4064 6.1274 17.694C5.6013 17.8329 5.059 17.9006 4.51489 17.896C4.12432 17.903 3.73415 17.8678 3.35114 17.7911C3.74852 19.0124 4.51494 20.0809 5.54478 20.8483C6.57462 21.6158 7.81718 22.0447 9.10114 22.0763C6.92433 23.779 4.23976 24.7033 1.47614 24.7015C0.984437 24.7049 0.493019 24.6764 0.00488281 24.6172C2.64961 26.3115 5.70159 27.2633 8.8406 27.3718C11.9796 27.4802 15.0899 26.7414 17.8453 25.2337C20.6007 23.726 22.8995 21.5046 24.5005 18.8024C26.1016 16.1002 26.9459 13.0169 26.9449 9.87602C26.9449 9.60352 26.9349 9.34135 26.9224 9.08135C28.1339 8.21182 29.1768 7.12854 29.9999 5.88494Z" fill="white"/>
</g>
<defs>
<clipPath id="clip0_4072_143">
<rect width="30" height="30" fill="white"/>
</clipPath>
</defs>
</svg>
