<svg width="30" height="30" viewBox="0 0 30 30" fill="none" xmlns="http://www.w3.org/2000/svg">
<g clip-path="url(#clip0_4072_615)">
<path d="M30 5.88518C28.8716 6.37758 27.6781 6.70451 26.4563 6.85625C27.7438 6.09291 28.7064 4.88382 29.1613 3.45781C27.9555 4.17243 26.6365 4.67581 25.2613 4.94646C24.4182 4.04589 23.3237 3.41995 22.1201 3.14958C20.9165 2.87922 19.6594 2.97685 18.5121 3.43035C17.3649 3.88385 16.3806 4.67204 15.6872 5.69231C14.9937 6.71258 14.6232 7.91817 14.6238 9.15178C14.6183 9.62316 14.6661 10.0931 14.7662 10.5538C12.3194 10.434 9.92547 9.79942 7.74087 8.69097C5.55627 7.58251 3.63025 6.02519 2.08875 4.12126C1.29767 5.47441 1.05278 7.07857 1.40401 8.60613C1.75523 10.1337 2.67614 11.4697 3.97878 12.3415C3.00528 12.3148 2.05234 12.0551 1.2 11.584V11.6518C1.20189 13.0718 1.69286 14.4478 2.5903 15.5483C3.48774 16.6488 4.73689 17.4067 6.12752 17.6943C5.60142 17.8332 5.05912 17.9008 4.51501 17.8963C4.12444 17.9032 3.73427 17.868 3.35126 17.7913C3.74864 19.0126 4.51506 20.0811 5.5449 20.8486C6.57474 21.616 7.8173 22.0449 9.10127 22.0766C6.92446 23.7793 4.23989 24.7036 1.47626 24.7017C0.984559 24.7051 0.493141 24.6767 0.00500488 24.6175C2.64973 26.3118 5.70171 27.2635 8.84072 27.372C11.9797 27.4805 15.0901 26.7416 17.8454 25.2339C20.6008 23.7262 22.8996 21.5048 24.5007 18.8027C26.1017 16.1005 26.946 13.0172 26.945 9.87627C26.945 9.60377 26.935 9.34159 26.9225 9.08159C28.1341 8.21207 29.177 7.12878 30 5.88518Z" fill="white"/>
</g>
<defs>
<clipPath id="clip0_4072_615">
<rect width="30" height="30" fill="white"/>
</clipPath>
</defs>
</svg>
