<svg width="30" height="30" viewBox="0 0 30 30" fill="none" xmlns="http://www.w3.org/2000/svg">
<g clip-path="url(#clip0_4079_1172)">
<path d="M29.9999 5.88518C28.8715 6.37758 27.6779 6.70451 26.4561 6.85625C27.7437 6.09291 28.7062 4.88382 29.1611 3.45781C27.9554 4.17243 26.6364 4.67581 25.2612 4.94646C24.4181 4.04589 23.3236 3.41995 22.12 3.14958C20.9164 2.87922 19.6592 2.97685 18.512 3.43035C17.3648 3.88385 16.3805 4.67204 15.687 5.69231C14.9936 6.71258 14.6231 7.91817 14.6236 9.15178C14.6182 9.62316 14.6659 10.0931 14.7661 10.5538C12.3193 10.434 9.92535 9.79942 7.74075 8.69097C5.55614 7.58251 3.63012 6.02519 2.08862 4.12126C1.29755 5.47441 1.05266 7.07857 1.40389 8.60613C1.75511 10.1337 2.67601 11.4697 3.97865 12.3415C3.00515 12.3148 2.05222 12.0551 1.19987 11.584V11.6518C1.20177 13.0718 1.69274 14.4478 2.59018 15.5483C3.48762 16.6488 4.73677 17.4067 6.1274 17.6943C5.6013 17.8332 5.059 17.9008 4.51489 17.8963C4.12432 17.9032 3.73415 17.868 3.35114 17.7913C3.74852 19.0126 4.51494 20.0811 5.54478 20.8486C6.57462 21.616 7.81718 22.0449 9.10114 22.0766C6.92433 23.7793 4.23976 24.7036 1.47614 24.7017C0.984437 24.7051 0.493019 24.6767 0.00488281 24.6175C2.64961 26.3118 5.70159 27.2635 8.8406 27.372C11.9796 27.4805 15.0899 26.7416 17.8453 25.2339C20.6007 23.7262 22.8995 21.5048 24.5005 18.8027C26.1016 16.1005 26.9459 13.0172 26.9449 9.87627C26.9449 9.60377 26.9349 9.34159 26.9224 9.08159C28.1339 8.21207 29.1768 7.12878 29.9999 5.88518Z" fill="white"/>
</g>
<defs>
<clipPath id="clip0_4079_1172">
<rect width="30" height="30" fill="white"/>
</clipPath>
</defs>
</svg>
